<svg width="18" height="18" viewBox="0 0 18 18" fill="none" xmlns="http://www.w3.org/2000/svg">
<path d="M16.5 10.5C16.5 10.9148 16.164 11.25 15.75 11.25H5.05275C5.36475 12.1305 6.19875 12.75 7.16775 12.75H14.25C14.664 12.75 15 13.0852 15 13.5C15 13.9148 14.664 14.25 14.25 14.25H7.16775C5.2665 14.25 3.66525 12.8265 3.44325 10.9388L2.41125 2.163C2.367 1.785 2.04675 1.5 1.6665 1.5H0.75C0.336 1.5 0 1.16475 0 0.75C0 0.33525 0.336 0 0.75 0H1.6665C2.80725 0 3.768 0.85425 3.90075 1.98675L3.9315 2.25H6.75C7.164 2.25 7.5 2.58525 7.5 3C7.5 3.41475 7.164 3.75 6.75 3.75H4.1085L4.81425 9.75H15.75C16.164 9.75 16.5 10.0852 16.5 10.5ZM5.25 15C4.42125 15 3.75 15.6713 3.75 16.5C3.75 17.3288 4.42125 18 5.25 18C6.07875 18 6.75 17.3288 6.75 16.5C6.75 15.6713 6.07875 15 5.25 15ZM12.75 15C11.9213 15 11.25 15.6713 11.25 16.5C11.25 17.3288 11.9213 18 12.75 18C13.5787 18 14.25 17.3288 14.25 16.5C14.25 15.6713 13.5787 15 12.75 15ZM14.25 4.1895V3C14.25 2.58525 13.914 2.25 13.5 2.25C13.086 2.25 12.75 2.58525 12.75 3V4.5C12.75 4.6995 12.8287 4.89 12.9697 5.03025L13.7197 5.78025C13.866 5.9265 14.058 6 14.25 6C14.442 6 14.634 5.9265 14.7803 5.78025C15.0735 5.487 15.0735 5.013 14.7803 4.71975L14.25 4.1895ZM18 4.5C18 6.98175 15.9818 9 13.5 9C11.0182 9 9 6.98175 9 4.5C9 2.01825 11.0182 0 13.5 0C15.9818 0 18 2.01825 18 4.5ZM16.5 4.5C16.5 2.8455 15.1545 1.5 13.5 1.5C11.8455 1.5 10.5 2.8455 10.5 4.5C10.5 6.1545 11.8455 7.5 13.5 7.5C15.1545 7.5 16.5 6.1545 16.5 4.5Z" fill="white" fill-opacity="0.92"/>
</svg>
